<!-- 五つの垂直量塊と角張った面の連続、左右から交差する方向性を示す構図分析図 -->
<svg xmlns="http://www.w3.org/2000/svg" viewBox="0 0 243 233" role="img" aria-label="アヴィニョンの娘たちの構図を抽象化した図">
  <g stroke="#0f0f11" stroke-width="1.2" stroke-linejoin="miter">
    <!-- 全面を共有する角張った明暗面 -->
    <path fill="#8e8a84" d="M0 0H243V233H0Z"/>
    <path fill="#e8e4dd" d="M0 0H57L42 34 62 67 30 105 51 142 0 169Z"/>
    <path fill="#3a3a3d" d="M0 0L28 22 13 62 40 93 17 126 0 111Z"/>
    <path fill="#3a3a3d" d="M243 0H198L215 29 188 61 224 91 195 128 243 158Z"/>
    <path fill="#e8e4dd" d="M243 18L220 43 234 70 205 101 232 133 209 174 243 191Z"/>
    <path fill="#e8e4dd" d="M48 0L91 0 80 43 103 70 74 101 88 137 55 163 65 233 22 233 43 184 24 150 52 116 36 79 60 47Z"/>
    <path fill="#3a3a3d" d="M91 0H135L124 40 143 77 112 105 132 143 101 174 115 233H67L84 192 70 154 96 118 77 80 98 45Z"/>
    <path fill="#e8e4dd" d="M135 0H177L166 31 185 63 157 90 175 116 149 148 164 181 151 233H111L126 188 110 151 139 119 120 83 147 50Z"/>
    <path fill="#3a3a3d" d="M177 0H215L198 31 219 54 190 76 214 97 183 119 207 144 176 164 198 190 181 233H148L160 196 144 170 174 143 151 117 181 91 160 63 187 39Z"/>
    <path fill="#8e8a84" d="M0 169L31 145 58 179 90 151 119 187 151 153 183 181 216 150 243 191V233H0Z"/>

    <!-- 五つの垂直量塊。輪郭は人体形状にせず帯状ブロックで示す -->
    <path fill="#8e8a84" d="M22 48L53 42 60 91 51 139 59 193 48 218 17 211 25 160 16 116Z"/>
    <path fill="#e8e4dd" d="M62 43L94 39 101 88 92 128 101 186 88 218 57 211 67 169 58 117Z"/>
    <path fill="#8e8a84" d="M105 39L136 37 144 87 135 132 145 187 133 219 101 211 110 165 101 113Z"/>
    <path fill="#e8e4dd" d="M148 44L180 37 188 80 176 109 191 137 174 159 190 187 176 218 145 209 156 177 143 148 160 120 146 91Z"/>
    <path fill="#8e8a84" d="M190 48L218 39 230 68 211 87 232 105 207 123 229 145 206 163 224 190 211 218 181 208 196 177 178 153 201 132 181 109 204 91 185 73Z"/>

    <!-- 楕円内部を異なる角度の面だけで分割 -->
    <g fill="none">
      <ellipse cx="39" cy="37" rx="13" ry="17" fill="#e8e4dd"/>
      <path fill="#8e8a84" d="M28 29L47 22 52 34 32 40Z"/>
      <path fill="#3a3a3d" d="M32 40L52 34 47 51 27 43Z"/>
      <ellipse cx="80" cy="32" rx="13" ry="17" fill="#8e8a84"/>
      <path fill="#e8e4dd" d="M69 24L86 16 92 31 73 35Z"/>
      <path fill="#3a3a3d" d="M73 35L92 31 83 49 67 40Z"/>
      <ellipse cx="121" cy="30" rx="13" ry="17" fill="#e8e4dd"/>
      <path fill="#8e8a84" d="M109 28L126 14 134 27 115 36Z"/>
      <path fill="#3a3a3d" d="M115 36L134 27 128 45 109 40Z"/>
      <ellipse cx="165" cy="32" rx="14" ry="18" fill="#8e8a84"/>
      <path fill="#e8e4dd" d="M153 20L174 18 166 34 151 30Z"/>
      <path fill="#3a3a3d" d="M151 30L166 34 177 28 171 47 155 48Z"/>
      <ellipse cx="204" cy="34" rx="14" ry="18" fill="#e8e4dd"/>
      <path fill="#3a3a3d" d="M192 22L211 18 205 34 190 31Z"/>
      <path fill="#8e8a84" d="M190 31L205 34 218 28 210 49 193 46Z"/>
    </g>

    <!-- 右側の破砕度と方向線 -->
    <path fill="none" d="M149 60L179 87 150 111 184 139 151 168M190 58L222 78 190 103 225 126 188 151 222 176"/>
    <path fill="none" d="M7 31L111 113 229 42M12 199L113 114 235 203"/>

    <!-- 下中央の水平量塊 -->
    <path fill="#e8e4dd" d="M88 196L151 194 159 218 82 218Z"/>
    <path fill="#3a3a3d" d="M82 218H159L151 228H91Z"/>
  </g>
</svg>
